<svg xmlns="http://www.w3.org/2000/svg" xmlns:xlink="http://www.w3.org/1999/xlink" version="1.1" id="Layer_1" x="0px" y="0px" width="100%" viewBox="0 0 1024 1024" enable-background="new 0 0 1024 1024" xml:space="preserve">
<path fill="#16a34a" opacity="1.000000" stroke="none" d=" M222.648209,734.990845   C222.512573,717.157776 224.859268,700.012146 226.446899,682.800720   C227.821182,667.902161 228.615616,652.949890 229.653214,638.020508   C230.956192,619.273010 232.341003,600.530518 233.514114,581.774780   C234.677475,563.175171 235.566223,544.558533 236.676956,525.955444   C237.906021,505.370697 239.301071,484.795837 240.523422,464.210724   C241.155670,453.563293 237.963715,443.981842 230.645508,436.311981   C224.456253,429.825378 217.254501,424.317627 210.843002,418.027863   C192.785233,400.312866 187.818451,378.227570 189.936768,353.871979   C190.886612,342.950806 191.732346,332.020599 192.671768,321.098480   C194.238373,302.884460 195.853546,284.674652 197.423508,266.460907   C197.880066,261.164032 198.377884,255.865433 198.610947,250.556839   C198.729767,247.850372 199.169174,245.244415 200.029053,242.730255   C201.665771,237.944504 204.977570,235.863419 209.564865,236.738892   C214.243118,237.631744 215.384033,240.915573 215.369827,245.249420   C215.294418,268.246643 215.262360,291.244720 215.383469,314.241608   C215.451859,327.230713 215.829208,340.218445 216.105469,353.205963   C216.147705,355.191772 216.148651,357.240845 217.646927,358.854095   C219.726166,361.092896 222.227097,362.243164 225.274277,361.408569   C228.717056,360.465546 229.856201,357.731018 229.973495,354.520538   C230.259201,346.699249 230.518936,338.875153 230.635620,331.049896   C231.040527,303.897278 231.370148,276.743530 231.763306,249.590729   C231.794556,247.433273 231.868851,245.231781 232.316101,243.134552   C233.180389,239.082001 235.906586,237.331589 240.003403,237.689651   C243.777344,238.019531 246.106018,239.729523 246.574402,243.807266   C247.815872,254.615280 247.136612,265.454163 247.220078,276.273956   C247.409012,300.769897 247.321472,325.267975 247.349487,349.765167   C247.351196,351.264771 247.274109,352.774506 247.416885,354.261963   C247.797180,358.223907 250.018784,360.765228 253.885925,361.485657   C258.014648,362.254852 261.506012,361.134705 263.487976,357.040344   C264.453094,355.046600 264.698486,352.926819 264.660889,350.722778   C264.083923,316.894867 265.653748,283.088043 265.680481,249.265686   C265.681793,247.599991 265.643188,245.922638 265.815887,244.270889   C266.319580,239.454102 268.592316,237.513504 273.390747,237.657715   C278.257263,237.803986 280.206299,239.795242 280.340271,244.761139   C281.284149,279.742981 281.361053,314.733154 281.350037,349.724213   C281.349548,351.223846 281.196442,352.751587 281.425140,354.217773   C282.090698,358.483673 284.512726,361.196930 288.935181,361.574371   C292.706055,361.896240 296.008514,358.757294 296.553131,354.471252   C296.761841,352.828918 296.647430,351.143036 296.647736,349.477020   C296.653961,314.814148 296.639709,280.151245 296.675385,245.488419   C296.680634,240.386261 299.073639,237.444244 303.252167,236.999619   C307.029785,236.597641 310.938690,239.489914 312.086823,243.651779   C312.572113,245.410919 313.023529,247.213104 313.183533,249.022827   C314.280762,261.433868 315.230408,273.858063 316.355103,286.266510   C317.809479,302.311829 319.396912,318.345032 320.897339,334.386230   C321.466003,340.465881 321.951996,346.553253 322.538239,353.363922   C325.955841,351.183014 327.806274,348.454956 330.000397,346.104919   C366.829803,306.657776 410.776459,279.770844 464.314514,269.581665   C483.196930,265.988037 502.205597,264.061432 521.382690,264.737610   C567.559326,266.365753 610.411560,278.638031 649.507385,303.990753   C691.803955,331.419128 722.374756,368.492035 742.193604,414.436646   C752.030273,437.240356 757.941284,461.246307 760.522583,486.117188   C764.256714,522.094604 760.700806,557.281250 749.338867,591.447815   C730.439148,648.281860 695.893860,693.612183 645.380676,725.887634   C615.954529,744.689392 583.707153,757.335938 548.705566,761.403015   C462.769073,771.388611 390.683258,744.237366 332.944183,679.734924   C309.143799,653.146729 292.884827,622.222351 282.281677,588.242493   C281.329193,585.190125 281.570007,581.687622 279.117554,579.046265   C276.746490,580.274658 277.301147,582.306152 277.502838,583.955444   C279.501984,600.301453 280.115753,616.752869 281.398987,633.152771   C282.837616,651.538391 284.908142,669.880920 286.025543,688.283447   C287.123627,706.368225 289.828247,724.336060 289.422974,742.539856   C288.996887,761.677795 274.868896,776.264526 255.986542,776.326965   C237.303528,776.388733 222.748215,761.614990 222.651245,742.487061   C222.639420,740.154358 222.648849,737.821472 222.648209,734.990845  M547.772827,707.108826   C581.774780,700.973389 612.063599,686.814880 638.464111,664.576721   C669.968811,638.039185 690.585632,604.425171 701.881592,565.001709   C708.875610,540.592407 710.071228,515.732483 707.720581,490.486877   C706.038513,472.422607 701.802856,455.078491 694.855774,438.482178   C676.401123,394.395172 646.954956,360.293152 603.808411,338.396271   C566.403259,319.413208 527.119324,312.183380 485.756561,318.659576   C438.108154,326.119965 397.774292,347.824249 366.802124,385.029663   C332.652740,426.051727 315.214630,472.897308 320.145508,527.104065   C323.826660,567.572266 338.728241,603.457397 363.139771,635.481934   C379.818604,657.362122 400.850159,674.412903 425.091278,687.421509   C448.251648,699.850098 473.008514,707.382019 499.158173,709.423523   C515.069580,710.665710 531.107361,710.234802 547.772827,707.108826  M275.638641,465.367981   C277.096527,456.510559 278.554382,447.653137 280.086304,438.345978   C270.687775,443.871429 266.309143,471.680847 272.907715,483.234955   C273.535767,480.011719 274.138855,477.325409 274.565826,474.611389   C275.001770,471.840393 275.264740,469.042236 275.638641,465.367981  z"/>
<path fill="#16a34a" opacity="1.000000" stroke="none" d=" M837.996704,587.332275   C839.157715,610.066589 840.003723,632.347595 841.451721,654.589539   C843.092529,679.793457 845.481506,704.948730 847.126099,730.152466   C847.887024,741.815002 847.785034,753.556030 840.181213,763.625854   C832.241699,774.140320 819.845215,778.530396 806.938354,775.317627   C794.684509,772.267334 785.807739,762.295471 783.672180,749.411255   C781.850098,738.418579 783.427673,727.471130 784.098755,716.540466   C784.974487,702.275696 786.503845,688.052246 787.637451,673.801880   C788.968262,657.073242 790.290466,640.342468 791.401672,623.598389   C792.315735,609.826111 792.655029,596.012878 793.718872,582.254089   C795.191833,563.203918 794.121155,543.978638 797.664856,525.076843   C797.878418,523.937866 797.998901,522.681641 798.573059,521.726624   C801.785156,516.383301 800.440674,511.945129 796.171265,507.922394   C781.031433,493.657440 774.195862,475.377899 770.680298,455.434814   C765.970215,428.715240 765.863770,401.784210 767.166016,374.837402   C768.357361,350.187256 772.375000,325.880615 779.912170,302.384644   C787.656616,278.242249 796.794678,254.611481 813.975830,235.156418   C816.872864,231.875854 820.100830,228.956711 824.010193,227.011826   C831.650879,223.210571 836.356323,226.144653 836.236511,234.586731   C834.834106,333.397827 835.309570,432.214966 835.467773,531.029419   C835.497559,549.641479 837.080933,568.250977 837.996704,587.332275  z"/>
<path fill="#16a34a" opacity="1.000000" stroke="none" d=" M447.253113,362.105804   C468.533173,352.393372 490.647522,348.364471 513.511536,348.076935   C543.512146,347.699677 571.326538,355.479095 597.257141,370.521729   C636.801086,393.461609 661.090942,428.014648 673.797424,471.194763   C679.507996,490.600983 679.284546,510.673798 677.740906,530.639832   C676.597473,545.429626 674.125122,560.038879 668.057495,573.773560   C666.868774,576.464294 668.027832,577.838562 670.466675,578.686951   C671.723511,579.124207 673.034973,579.485046 674.187622,580.122803   C676.197449,581.234863 677.661926,582.827820 677.089844,585.370239   C676.504883,587.970276 674.651733,588.570068 672.182434,588.509399   C666.520874,588.370239 660.854736,588.399231 655.190430,588.399109   C556.559082,588.396851 457.927795,588.398804 359.296478,588.412781   C356.765320,588.413147 353.967926,588.740112 353.025208,585.671265   C352.009338,582.364319 354.531891,580.771729 356.946838,579.579712   C361.319031,577.421814 361.913147,575.128479 360.042603,570.156128   C350.274445,544.190247 347.176880,517.380859 351.351013,489.782684   C355.221069,464.195190 363.832367,440.466858 378.707458,419.255035   C396.289917,394.182495 419.120270,375.213165 447.253113,362.105804  M479.508209,563.629944   C499.484863,563.593811 519.451782,563.980774 539.367188,565.632935   C557.397644,567.128601 575.403687,568.919312 593.433350,570.425537   C607.680420,571.615784 621.937683,572.730347 636.208923,573.562500   C643.010864,573.959229 643.798950,573.017456 643.651367,566.277954   C643.156982,543.708435 636.064331,523.047668 624.070679,504.229584   C604.377136,473.330353 576.472229,453.752991 540.634888,445.461914   C517.199463,440.040070 493.978943,440.695557 471.306366,448.371277   C430.663147,462.130981 403.479431,490.017181 388.792297,530.067688   C385.313507,539.553955 383.015106,549.520691 383.304504,559.841919   C383.459686,565.377502 384.499969,565.702820 390.066071,564.859375   C397.241028,563.772156 399.885376,559.964050 400.648407,553.017517   C405.715424,506.888000 449.330292,464.148590 498.160004,460.648102   C500.216461,460.500671 502.427216,459.023743 505.001343,460.945618   C503.960907,461.582855 503.470886,462.011200 502.900665,462.213837   C476.525452,471.588257 457.301147,489.065765 444.488892,513.785461   C437.843475,526.606873 433.049286,540.021667 432.408478,554.596069   C432.155182,560.356995 434.356964,562.484863 440.064362,562.652649   C452.879059,563.029358 465.696503,563.310486 479.508209,563.629944  M502.167664,403.593201   C491.706512,411.028809 489.956879,425.072845 499.389832,430.201630   C501.163116,421.959564 506.371246,418.384949 514.715698,418.573151   C523.369995,418.768341 527.551880,424.107452 530.041077,431.587555   C536.045471,426.682892 537.700623,421.726410 535.752319,415.801697   C531.302307,402.269257 515.698303,396.313110 502.167664,403.593201  z"/>
<path fill="#16a34a" opacity="1.000000" stroke="none" d=" M450.036285,604.594482   C514.329102,604.599304 578.127686,604.602417 641.926270,604.612732   C644.034851,604.613098 646.416992,603.976501 647.690979,606.450195   C648.936279,608.868347 647.231323,610.567749 645.999146,612.297607   C628.822876,636.410400 606.120972,653.530823 579.071411,665.148743   C553.804810,676.000854 527.526184,680.067871 500.121826,677.459106   C452.296112,672.906250 413.819611,651.474426 384.237274,613.808960   C382.764221,611.933533 380.447296,610.102966 381.700439,607.225830   C383.062561,604.098572 386.051086,604.639465 388.660095,604.634888   C408.954041,604.598816 429.248047,604.602417 450.036285,604.594482  z"/>
</svg>